<?xml version="1.0" encoding="UTF-8" standalone="no"?>
<!-- Created with Inkscape (http://www.inkscape.org/) -->

<svg
   width="128"
   height="128"
   viewBox="0 0 33.866667 33.866667"
   version="1.1"
   id="svg300"
   inkscape:version="1.2.2 (b0a8486541, 2022-12-01)"
   sodipodi:docname="icon.svg"
   xmlns:inkscape="http://www.inkscape.org/namespaces/inkscape"
   xmlns:sodipodi="http://sodipodi.sourceforge.net/DTD/sodipodi-0.dtd"
   xmlns="http://www.w3.org/2000/svg"
   xmlns:svg="http://www.w3.org/2000/svg">
  <sodipodi:namedview
     id="namedview302"
     pagecolor="#ffffff"
     bordercolor="#000000"
     borderopacity="0.25"
     inkscape:showpageshadow="2"
     inkscape:pageopacity="0.0"
     inkscape:pagecheckerboard="true"
     inkscape:deskcolor="#d1d1d1"
     inkscape:document-units="px"
     showgrid="false"
     inkscape:lockguides="false"
     inkscape:zoom="8.516629"
     inkscape:cx="44.031506"
     inkscape:cy="64.462125"
     inkscape:window-width="1920"
     inkscape:window-height="1011"
     inkscape:window-x="0"
     inkscape:window-y="32"
     inkscape:window-maximized="1"
     inkscape:current-layer="layer1" />
  <defs
     id="defs297">
    <inkscape:path-effect
       effect="spiro"
       id="path-effect6747"
       is_visible="true"
       lpeversion="1" />
    <inkscape:path-effect
       effect="spiro"
       id="path-effect6741"
       is_visible="true"
       lpeversion="1" />
    <inkscape:path-effect
       effect="spiro"
       id="path-effect6733"
       is_visible="true"
       lpeversion="1" />
    <inkscape:path-effect
       effect="spiro"
       id="path-effect6727"
       is_visible="true"
       lpeversion="1" />
    <inkscape:path-effect
       effect="spiro"
       id="path-effect6717"
       is_visible="true"
       lpeversion="1" />
  </defs>
  <g
     inkscape:label="Layer 1"
     inkscape:groupmode="layer"
     id="layer1">
    <ellipse
       style="fill:none;stroke:#000000;stroke-width:0.264999;stroke-dasharray:none;stroke-opacity:1"
       id="path4425"
       cx="17.230494"
       cy="16.949909"
       rx="14.713374"
       ry="14.515068" />
    <path
       style="fill:none;stroke:#000000;stroke-width:0.264999;stroke-dasharray:none;stroke-opacity:1"
       d="m 26.083186,5.3905472 c -2.509819,0.8526549 -4.736635,2.5172615 -6.264802,4.6831128 -1.528168,2.165852 -2.34987,4.82187 -2.311733,7.472295 3.19e-4,0.02216 6.96e-4,0.04431 10e-4,0.06647 0.03624,2.639945 -1.013062,5.278609 -2.852327,7.172739 -1.839265,1.89413 -4.445957,3.02051 -7.0858267,3.061865"
       id="path6715" />
    <ellipse
       style="fill:none;stroke:#000000;stroke-width:0.264999;stroke-dasharray:none;stroke-opacity:1"
       id="path6719"
       cx="16.957415"
       cy="9.0976982"
       rx="1.0772192"
       ry="1.0906358" />
    <path
       style="display:inline;fill:none;stroke:#000000;stroke-width:0.264999;stroke-dasharray:none;stroke-opacity:1"
       d="m 16.955267,10.237357 c -1.679541,0.113942 -3.274743,1.107661 -4.117461,2.564941 -0.03009,0.05204 -0.05928,0.104606 -0.0873,0.157789 -0.467595,0.887449 -0.595576,1.912223 -0.648316,2.913936 -0.05274,1.001713 -0.03918,2.014701 -0.25469,2.994379 -0.278852,1.267652 -0.94696,2.446895 -1.8909876,3.337688"
       id="path6725"
       inkscape:path-effect="#path-effect6727"
       inkscape:original-d="m 16.955267,10.237357 c -1.372222,0.855245 -2.744709,1.710225 -4.117461,2.564941 -1.372751,0.854715 -0.05793,0.105457 -0.0873,0.157789 -0.02936,0.05233 -0.601739,3.939141 -0.903006,5.908315 -0.301267,1.969174 -1.260394,2.22539 -1.8909876,3.337688" />
    <path
       style="fill:none;stroke:#000000;stroke-width:0.264999;stroke-dasharray:none;stroke-opacity:1"
       d="m 16.940197,10.23272 c 1.679541,0.113942 3.274743,1.107661 4.117461,2.564941 0.03009,0.05204 0.05928,0.104606 0.0873,0.157789 0.467595,0.887449 0.595576,1.912223 0.648316,2.913936 0.05274,1.001713 0.03918,2.014701 0.25469,2.994379 0.278852,1.267652 0.946959,2.446895 1.890987,3.337688"
       id="path6729"
       inkscape:original-d="m 16.940197,10.23272 c 1.372222,0.855245 2.744709,1.710225 4.117461,2.564941 1.372751,0.854715 0.05793,0.105457 0.0873,0.157789 0.02936,0.05233 0.601739,3.939141 0.903006,5.908315 0.301267,1.969174 1.260394,2.22539 1.890987,3.337688"
       inkscape:path-effect="#path-effect6733" />
    <path
       style="fill:none;stroke:#000000;stroke-width:0.264999;stroke-dasharray:none;stroke-opacity:1"
       d="m 9.9087519,22.116752 c 4.3751071,1.952817 9.5764511,1.961916 13.9583641,0.02442 0.01175,-0.0052 0.02349,-0.0104 0.03522,-0.01562"
       id="path6739"
       inkscape:original-d="m 9.9087519,22.116752 c 4.6598181,0.01059 9.3058401,0.01654 13.9583641,0.02442 4.652524,0.0079 0.02375,-0.01015 0.03522,-0.01562"
       inkscape:path-effect="#path-effect6741" />
    <path
       style="fill:none;stroke:#000000;stroke-width:0.264999;stroke-dasharray:none;stroke-opacity:1"
       d="m 9.9277199,22.181803 c 4.3751071,-1.952817 9.5764501,-1.961916 13.9583631,-0.02442 0.01175,0.0052 0.02349,0.0104 0.03522,0.01562"
       id="path6743" />
    <ellipse
       style="fill:none;stroke:#000000;stroke-width:0.264999;stroke-dasharray:none;stroke-opacity:1"
       id="path6796"
       cx="16.825491"
       cy="22.381935"
       rx="1.5826569"
       ry="1.5498466" />
  </g>
</svg>
