<?xml version="1.0" encoding="UTF-8"?>
<svg id="Layer_1" xmlns="http://www.w3.org/2000/svg" version="1.1" viewBox="0 0 128 128">
  <!-- Generator: Adobe Illustrator 29.1.0, SVG Export Plug-In . SVG Version: 2.1.0 Build 142)  -->
  <defs>
    <style>
      .st0 {
        fill: none;
      }

      .st1 {
        fill: #fff;
        stroke: #2a3541;
        stroke-width: 7.4px;
      }

      .st2 {
        fill: #c9bb00;
      }

      .st3 {
        fill: #92a0a2;
      }

      .st4 {
        fill: #91beff;
      }

      .st5 {
        fill: #6b6a6a;
      }

      .st6 {
        fill: #aaa700;
      }
    </style>
  </defs>
  <circle class="st1" cx="64.9" cy="64" r="56.1"/>
  <g>
    <path class="st4" d="M65.2,10.8v107.1c-29.6,0-53.6-24-53.6-53.6S35.6,10.8,65.2,10.8Z"/>
    <path class="st5" d="M64.9,10.8v107.1c29.6,0,53.6-24,53.6-53.6S94.5,10.8,64.9,10.8Z"/>
  </g>
  <g>
    <path class="st6" d="M59.2,89.5c0,2.9,2.5,5.2,5.5,5.2h0v-10.5s0,0,0,0c-3,0-5.5,2.4-5.5,5.2Z"/>
    <path class="st0" d="M49.1,47.7c-.1.2-.2.4-.4.6-2,3.8-2.5,8.2-2.7,12.1,0,1,0,2-.1,3-.1,3.5-.3,7.1-1,10.6-.8,3.8-2.4,7.4-4.6,10.6,7.5-2.4,17.1-5.1,23.2-5.4.5,0,1.1,0,1.7,0l.3-42c-6.7.5-13.2,4.6-16.5,10.4Z"/>
    <path class="st0" d="M70,32.4c0-2.7-2.3-5-5.1-5v10c2.8,0,5.1-2.3,5.1-5h0Z"/>
    <path class="st0" d="M64.9,33.4c1.6,0,2.9-1.3,2.9-3s-1.3-3-2.9-3h0v6s0,0,0,0h0Z"/>
    <path class="st3" d="M88.1,75.9c1,4.1.7,5.8,3.1,9.1-12.6-3-21.2-5.2-26.3-5.9v-42c0,0,.1,0,.2,0,6.8.3,13.6,4.3,17.3,10.4.1.2.3.5.4.7,2.2,4,2.9,8.8,3.4,13,.1,1.1.2,2.2.3,3.2.3,3.8.6,7.6,1.6,11.4h0Z"/>
    <path class="st0" d="M73.6,89.1c0,1.1-.2,2.1-.6,3.1,5.7-.6,11.3-1.8,16.7-3.7.2,0,.4-.2.7-.2-8.4-2.3-14.4-3.7-18.7-4.5,1.2,1.5,1.9,3.4,1.9,5.4h0Z"/>
    <path class="st0" d="M40.5,88.4c5.1,1.9,10.6,3.1,16.4,3.7-.4-.9-.5-2-.5-3,0-2.1.8-4.1,2.1-5.6-4.7.9-10.8,2.5-17.9,4.8Z"/>
    <path class="st6" d="M64.9,27.3v6.2c-1.6,0-2.9-1.4-2.9-3.1s1.3-3.1,2.9-3.1h0Z"/>
    <path class="st3" d="M96.5,86.4c1.1.4,1.4,1.5,1.2,2.3-.2.7-.9,1.3-1.8,1.3-1.8.8-3.6,1.5-5.4,2.1-6.7,2.3-13.8,3.7-21,4.2-1.5,1-2.8,1.6-4.7,1.6v-3.7c2.8,0,4.7-2.2,4.7-5s-1.9-5-4.7-5v-5c4.9.2,13.2,2.1,25.4,5.5-2.2-3.2-3.8-6.9-4.6-10.6-.8-3.5-.9-7.1-1-10.6,0-1,0-2-.1-3-.2-3.9-.7-8.4-2.7-12.1-.1-.2-.2-.4-.4-.6-3.4-5.8-9.8-9.9-16.5-10.4,0,0,0,0-.1,0v-3.9s0,0,0,0c1.6,0,2.9-1.3,2.9-3s-1.3-3-2.9-3h0v-3.7c3.5,0,6.5,3.1,6.5,6.8s-.4,2.9-1.2,4.1c6,1.8,11.4,5.9,14.5,11.3.2.3.3.5.4.8,2.3,4.4,2.9,9.4,3.1,13.7,0,1,0,2,.1,3,.1,3.5.3,6.7,1,9.9,1.1,4.9,3.6,9.6,7.2,13.2,0,0,0,0,0,0h0Z"/>
    <path class="st2" d="M65.2,94.2c-2.8,0-5.2-2.2-5.2-5s2-5,4.8-5,0,0,0,0v-5c-.6,0-.7,0-1.2,0-6.2.3-15.8,3-23.2,5.4,2.2-3.2,3.7-6.8,4.6-10.6.8-3.5.9-7.1,1-10.6,0-1,0-2,.1-3,.2-3.9.7-8.4,2.7-12.1.1-.2.2-.4.4-.6,3.4-5.8,9.1-9.9,15.8-10.4v-3.9c-1.6,0-2.7-1.5-2.7-3.1,0-1.5,1.1-2.9,2.7-2.9v-3.7s0,0,0,0c-3.6,0-5.7,3-5.7,6.7s.5,3,1.4,4.1c-6.1,1.8-11.4,5.8-14.6,11.4-.2.3-.3.5-.4.8-2.3,4.4-2.9,9.4-3.1,13.7,0,1,0,2-.1,3-.1,3.5-.3,6.7-1,9.9-1.1,5.2-3.9,10-7.7,13.7-1.2.8-.8,2.1-.8,2.2.2.5.7,1.2,1.7,1.2s.3,0,.5,0c7.5,3.3,15.9,5.3,24.9,5.9,1.5,1.1,3,1.7,5,1.7h0v-3.7c-.3,0,.3,0,.3,0h0Z"/>
    <path class="st6" d="M58.4,83.6c-1.3,1.5-2.1,3.5-2.1,5.6s.2,2.1.5,3c-5.8-.6-11.3-1.9-16.4-3.7,7.1-2.3,13.2-4,17.9-4.8h0Z"/>
  </g>
  <path class="st5" d="M70,83.6c1.3,1.5,2.1,3.5,2.1,5.6s-.2,2.1-.5,3c5.8-.6,11.3-1.9,16.4-3.7-7.1-2.3-13.2-4-17.9-4.8h0Z"/>
  <path class="st2" d="M42.8,75.8c-1,4.1-.7,5.8-3,9.1,11.9-3.1,20.2-5,25-5.7v-42.2c0,0-.1,0-.2,0-6.5.3-12.9,4.4-16.4,10.5-.1.2-.3.5-.4.7-2.1,4-2.8,8.8-3.2,13-.1,1.1-.2,2.2-.3,3.2-.3,3.8-.6,7.6-1.6,11.4h0Z"/>
</svg>